<?xml version='1.0' encoding='utf-8'?>
<svg xmlns="http://www.w3.org/2000/svg" viewBox="0 0 749 744" width="749" height="744"><g transform="translate(-137,-138)"><path d="M459,138 L441,193 L394,205 L334,237 L280,214 L206,289 L230,343 L191,434 L138,451 L137,564 L192,583 L228,673 L204,728 L280,805 L334,783 L442,830 L459,882 L564,882 L585,827 L638,811 L689,783 L743,805 L817,731 L795,673 L831,583 L886,563 L886,451 L831,432 L795,343 L818,289 L743,214 L689,236 L582,192 L563,138 Z" fill="#1AA5A0" stroke="none" /></g></svg>