<svg xmlns="http://www.w3.org/2000/svg" viewBox="0 0 1024 1024">
<g id="combatfrogs"><path d="M 834 499 L 832 499 L 828 497 L 822 497 L 821 498 L 816 499 L 813 502 L 810 508 L 810 517 L 814 523 L 818 525 L 826 525 L 833 521 L 836 518 L 838 513 L 838 505 Z M 360 452 L 356 451 L 355 452 L 348 452 L 343 454 L 338 454 L 337 455 L 326 457 L 322 459 L 315 460 L 308 463 L 300 464 L 299 465 L 289 467 L 288 468 L 284 468 L 280 470 L 272 470 L 271 469 L 261 470 L 253 474 L 247 480 L 242 481 L 239 483 L 235 483 L 227 486 L 223 486 L 222 487 L 219 487 L 218 488 L 213 489 L 203 494 L 198 499 L 197 501 L 197 506 L 195 510 L 195 515 L 194 516 L 194 522 L 196 526 L 205 526 L 208 524 L 211 524 L 212 523 L 220 521 L 230 516 L 234 516 L 235 517 L 235 523 L 234 524 L 234 527 L 233 528 L 233 531 L 231 536 L 230 544 L 226 548 L 224 548 L 214 554 L 210 558 L 207 566 L 208 572 L 211 576 L 216 578 L 222 577 L 224 579 L 224 584 L 223 585 L 222 595 L 220 600 L 220 607 L 219 608 L 219 635 L 220 636 L 221 645 L 223 647 L 233 646 L 239 641 L 240 637 L 242 634 L 244 633 L 245 624 L 249 616 L 249 606 L 251 602 L 251 598 L 252 597 L 253 590 L 256 584 L 256 579 L 257 578 L 259 568 L 265 565 L 271 564 L 276 561 L 278 561 L 288 557 L 291 557 L 297 554 L 307 552 L 316 547 L 319 547 L 322 544 L 326 543 L 327 540 L 330 536 L 330 534 L 331 533 L 331 527 L 329 525 L 329 521 L 327 519 L 322 519 L 321 520 L 313 521 L 312 522 L 306 523 L 302 525 L 299 525 L 292 528 L 288 528 L 285 530 L 282 530 L 281 531 L 276 532 L 273 534 L 268 535 L 267 534 L 267 528 L 269 524 L 269 519 L 271 515 L 271 509 L 272 508 L 272 506 L 277 502 L 283 501 L 290 498 L 293 498 L 296 496 L 299 496 L 300 495 L 308 493 L 311 491 L 314 491 L 317 489 L 320 489 L 321 488 L 326 487 L 329 485 L 331 485 L 335 483 L 338 483 L 347 479 L 350 479 L 358 475 L 360 471 L 360 465 L 361 464 L 361 453 Z M 830 448 L 825 448 L 822 450 L 818 451 L 815 454 L 811 462 L 812 473 L 816 477 L 820 479 L 827 479 L 834 476 L 839 466 L 839 462 L 840 461 L 839 455 L 836 451 Z M 452 450 L 445 447 L 436 446 L 435 445 L 425 445 L 424 446 L 416 446 L 415 447 L 410 447 L 409 448 L 401 448 L 400 449 L 389 452 L 386 454 L 383 454 L 369 461 L 365 465 L 363 484 L 366 488 L 372 487 L 373 488 L 373 490 L 371 494 L 371 497 L 370 498 L 370 501 L 366 512 L 366 515 L 363 521 L 361 531 L 360 533 L 358 534 L 351 542 L 351 549 L 356 555 L 356 559 L 355 560 L 355 564 L 354 565 L 354 570 L 353 571 L 352 593 L 354 597 L 354 602 L 357 607 L 359 607 L 360 608 L 366 607 L 373 599 L 376 593 L 377 583 L 378 582 L 378 579 L 379 578 L 379 575 L 381 570 L 381 566 L 383 562 L 384 554 L 387 551 L 391 551 L 397 559 L 398 559 L 405 567 L 405 568 L 422 584 L 430 590 L 440 595 L 446 596 L 447 597 L 449 597 L 454 593 L 456 593 L 457 592 L 457 589 L 459 587 L 459 585 L 462 583 L 463 579 L 457 573 L 452 570 L 444 562 L 443 562 L 421 539 L 421 536 L 428 531 L 430 531 L 433 528 L 435 528 L 453 513 L 460 503 L 465 492 L 465 490 L 466 489 L 466 484 L 467 483 L 466 471 L 465 470 L 464 465 L 459 456 Z M 434 475 L 438 479 L 438 486 L 431 497 L 429 498 L 425 503 L 414 511 L 410 512 L 404 516 L 394 519 L 393 518 L 393 516 L 396 508 L 396 505 L 397 504 L 397 501 L 398 500 L 398 497 L 399 496 L 399 493 L 401 489 L 401 486 L 402 485 L 403 480 L 408 477 L 414 476 L 415 475 L 419 475 L 420 474 L 431 474 L 432 475 Z M 557 433 L 551 432 L 550 431 L 539 431 L 538 432 L 532 433 L 516 442 L 511 447 L 508 452 L 496 466 L 495 469 L 489 476 L 488 479 L 486 481 L 486 483 L 480 492 L 480 494 L 475 504 L 475 507 L 473 512 L 473 516 L 471 521 L 471 526 L 470 527 L 470 549 L 471 550 L 472 559 L 474 561 L 478 569 L 482 573 L 482 574 L 492 581 L 495 581 L 500 583 L 515 583 L 516 582 L 520 582 L 525 579 L 527 579 L 536 573 L 547 562 L 556 549 L 557 546 L 559 544 L 560 540 L 564 534 L 564 532 L 568 522 L 569 515 L 572 508 L 572 503 L 573 502 L 573 498 L 574 497 L 574 492 L 575 491 L 575 471 L 574 470 L 573 458 L 572 457 L 572 454 L 571 453 L 570 448 L 564 438 Z M 542 459 L 548 465 L 548 488 L 547 489 L 547 494 L 546 495 L 543 510 L 541 513 L 541 515 L 537 523 L 537 525 L 534 529 L 534 532 L 528 540 L 528 542 L 516 554 L 509 556 L 504 553 L 501 545 L 501 526 L 502 525 L 502 521 L 503 520 L 503 516 L 504 515 L 505 508 L 510 498 L 510 496 L 519 480 L 523 476 L 527 470 L 531 467 L 534 463 L 538 460 Z M 679 410 L 671 407 L 668 407 L 667 408 L 658 408 L 657 409 L 652 410 L 640 416 L 633 421 L 624 429 L 618 437 L 616 438 L 616 439 L 610 445 L 608 448 L 608 450 L 603 455 L 598 465 L 596 467 L 591 477 L 589 479 L 589 481 L 583 493 L 582 500 L 579 508 L 578 520 L 577 521 L 577 537 L 578 538 L 578 543 L 579 544 L 579 546 L 583 554 L 589 563 L 593 565 L 594 567 L 596 567 L 601 570 L 606 570 L 607 571 L 622 571 L 623 570 L 629 569 L 637 565 L 639 565 L 647 559 L 650 558 L 660 549 L 661 549 L 671 539 L 672 536 L 675 534 L 676 532 L 677 532 L 678 529 L 683 523 L 686 516 L 686 513 L 688 510 L 688 498 L 687 497 L 686 492 L 681 489 L 675 489 L 671 491 L 662 492 L 658 494 L 647 496 L 628 503 L 628 504 L 624 508 L 624 517 L 629 523 L 631 524 L 636 524 L 637 523 L 640 523 L 648 520 L 651 520 L 652 521 L 652 523 L 647 528 L 643 530 L 639 534 L 637 534 L 633 538 L 629 540 L 627 540 L 624 542 L 616 542 L 607 532 L 607 517 L 608 516 L 610 508 L 614 501 L 614 499 L 620 487 L 623 484 L 623 481 L 625 479 L 627 474 L 630 471 L 633 465 L 639 459 L 641 455 L 645 452 L 645 451 L 649 447 L 650 447 L 653 443 L 655 443 L 656 444 L 656 446 L 655 447 L 655 449 L 652 456 L 652 459 L 651 460 L 651 469 L 654 474 L 659 476 L 664 476 L 671 471 L 677 465 L 677 464 L 680 462 L 687 452 L 687 448 L 690 440 L 689 431 L 688 430 L 687 423 L 682 413 Z M 789 400 L 783 397 L 768 397 L 762 400 L 759 400 L 756 402 L 754 402 L 732 415 L 727 420 L 717 427 L 704 441 L 700 452 L 700 468 L 703 475 L 706 479 L 715 485 L 717 485 L 720 487 L 723 487 L 724 488 L 727 488 L 728 489 L 731 489 L 736 491 L 741 491 L 742 492 L 747 492 L 748 493 L 752 493 L 753 494 L 757 494 L 758 495 L 763 495 L 765 497 L 765 500 L 764 502 L 758 507 L 753 509 L 751 511 L 746 512 L 743 514 L 741 514 L 737 516 L 734 516 L 733 517 L 730 517 L 729 518 L 726 518 L 721 520 L 717 520 L 716 521 L 713 521 L 708 523 L 703 523 L 702 524 L 699 524 L 696 526 L 692 530 L 691 543 L 692 544 L 692 546 L 698 551 L 702 551 L 703 552 L 719 552 L 720 551 L 724 551 L 725 550 L 735 549 L 743 546 L 746 546 L 752 543 L 755 543 L 757 541 L 759 541 L 768 536 L 770 536 L 773 533 L 776 532 L 783 527 L 797 510 L 797 507 L 798 506 L 797 500 L 798 499 L 798 497 L 795 492 L 794 488 L 788 481 L 785 480 L 780 476 L 778 476 L 765 470 L 762 470 L 751 466 L 747 466 L 743 464 L 736 463 L 731 460 L 731 457 L 733 454 L 743 443 L 746 442 L 747 440 L 750 439 L 759 431 L 767 427 L 769 427 L 770 428 L 770 431 L 768 436 L 768 448 L 770 452 L 773 455 L 775 455 L 780 458 L 785 458 L 787 457 L 790 453 L 791 453 L 794 445 L 794 441 L 797 435 L 797 431 L 798 430 L 798 426 L 799 425 L 799 418 L 798 417 L 797 410 L 793 404 Z M 350 308 L 339 308 L 335 310 L 332 310 L 329 308 L 320 308 L 318 310 L 315 311 L 308 316 L 308 317 L 298 327 L 294 334 L 291 337 L 282 353 L 282 355 L 278 362 L 276 369 L 273 374 L 272 382 L 271 383 L 271 386 L 269 391 L 269 396 L 268 397 L 268 414 L 269 415 L 269 418 L 270 419 L 270 422 L 271 423 L 272 428 L 282 440 L 289 444 L 296 445 L 297 446 L 311 446 L 312 445 L 319 444 L 327 440 L 337 431 L 338 431 L 343 424 L 345 423 L 348 417 L 351 414 L 351 412 L 353 410 L 357 402 L 357 400 L 360 395 L 360 393 L 363 387 L 363 384 L 365 380 L 365 376 L 367 371 L 368 346 L 367 345 L 367 334 L 366 333 L 366 328 L 365 327 L 364 322 L 361 318 L 360 315 L 357 312 Z M 335 333 L 339 337 L 339 339 L 341 343 L 341 351 L 342 352 L 341 367 L 339 371 L 339 374 L 338 375 L 338 378 L 337 379 L 335 387 L 333 389 L 333 391 L 325 406 L 319 412 L 319 413 L 310 420 L 302 420 L 298 416 L 295 410 L 295 403 L 296 402 L 296 395 L 298 390 L 298 386 L 299 385 L 299 382 L 300 381 L 303 370 L 306 366 L 306 364 L 308 362 L 308 359 L 311 353 L 318 344 L 320 340 L 323 338 L 323 337 L 327 333 Z M 265 280 L 262 280 L 260 283 L 253 284 L 247 289 L 247 291 L 246 292 L 232 291 L 228 293 L 224 293 L 216 297 L 213 300 L 204 305 L 191 317 L 191 318 L 176 336 L 175 339 L 168 347 L 165 353 L 162 356 L 158 366 L 156 367 L 156 369 L 154 371 L 150 379 L 150 382 L 148 385 L 147 391 L 145 394 L 145 396 L 141 406 L 141 409 L 139 414 L 139 423 L 138 424 L 138 437 L 139 438 L 139 443 L 140 444 L 141 449 L 145 457 L 149 462 L 150 465 L 151 465 L 154 469 L 161 474 L 163 474 L 166 476 L 173 477 L 174 478 L 187 478 L 188 477 L 196 476 L 197 475 L 202 474 L 207 471 L 209 471 L 214 467 L 219 465 L 226 460 L 240 447 L 240 446 L 249 436 L 253 427 L 255 425 L 255 423 L 259 419 L 259 417 L 261 414 L 261 411 L 262 410 L 263 397 L 252 397 L 250 400 L 243 399 L 228 413 L 224 419 L 222 424 L 219 426 L 218 428 L 217 428 L 213 432 L 211 432 L 200 442 L 190 447 L 184 448 L 179 446 L 179 445 L 175 441 L 175 439 L 173 435 L 173 432 L 172 431 L 172 428 L 173 427 L 173 419 L 175 414 L 175 408 L 178 402 L 181 392 L 185 384 L 189 379 L 192 372 L 196 367 L 197 364 L 199 362 L 199 360 L 203 355 L 204 352 L 211 344 L 214 339 L 228 324 L 232 323 L 233 324 L 233 326 L 231 329 L 230 335 L 229 336 L 229 338 L 227 342 L 227 345 L 226 346 L 226 349 L 225 350 L 225 363 L 231 367 L 239 366 L 247 360 L 249 360 L 250 358 L 254 355 L 254 353 L 256 351 L 260 343 L 262 336 L 264 334 L 264 328 L 265 327 L 265 324 L 267 319 L 267 315 L 270 307 L 270 302 L 269 301 L 270 291 L 267 287 L 266 281 Z M 627 279 L 626 279 L 624 276 L 619 272 L 616 272 L 614 270 L 607 267 L 593 266 L 592 265 L 570 266 L 569 267 L 563 267 L 559 269 L 553 269 L 552 270 L 541 272 L 538 274 L 536 274 L 533 276 L 526 278 L 521 281 L 512 291 L 510 291 L 509 290 L 509 285 L 506 282 L 506 279 L 502 277 L 491 277 L 489 278 L 485 283 L 482 283 L 481 285 L 477 287 L 469 296 L 468 299 L 461 308 L 458 314 L 449 326 L 448 329 L 445 332 L 444 335 L 440 340 L 438 345 L 435 348 L 433 352 L 431 352 L 430 351 L 430 330 L 429 329 L 429 324 L 427 321 L 427 304 L 426 303 L 426 298 L 422 293 L 418 293 L 415 290 L 408 290 L 402 297 L 392 301 L 391 305 L 388 309 L 388 311 L 387 312 L 386 319 L 384 323 L 384 327 L 380 338 L 379 347 L 377 352 L 377 357 L 375 361 L 375 366 L 374 367 L 374 370 L 372 375 L 372 381 L 371 382 L 370 390 L 369 391 L 369 395 L 368 396 L 368 403 L 367 404 L 367 409 L 366 410 L 366 424 L 368 429 L 370 431 L 372 431 L 373 432 L 379 432 L 380 431 L 382 431 L 384 429 L 391 415 L 391 412 L 394 404 L 395 397 L 398 390 L 401 375 L 403 372 L 405 372 L 406 373 L 407 382 L 408 383 L 410 393 L 414 403 L 416 406 L 417 406 L 421 410 L 423 410 L 426 412 L 429 412 L 433 410 L 439 404 L 445 395 L 447 390 L 453 382 L 457 374 L 461 368 L 463 367 L 465 363 L 467 363 L 468 364 L 468 369 L 467 370 L 466 380 L 464 385 L 464 392 L 463 393 L 462 401 L 461 402 L 461 409 L 464 415 L 472 421 L 482 421 L 484 417 L 487 414 L 487 411 L 489 408 L 489 405 L 490 404 L 490 401 L 491 400 L 491 397 L 493 392 L 494 381 L 495 380 L 495 375 L 496 374 L 496 368 L 498 365 L 499 355 L 500 354 L 500 350 L 501 349 L 502 337 L 503 336 L 503 331 L 504 330 L 504 324 L 505 323 L 505 317 L 506 316 L 506 308 L 507 307 L 507 300 L 509 295 L 511 295 L 512 296 L 512 300 L 516 304 L 520 306 L 524 306 L 531 303 L 534 303 L 535 304 L 535 309 L 534 310 L 533 317 L 531 321 L 531 325 L 529 330 L 528 338 L 526 342 L 526 345 L 523 352 L 523 356 L 520 363 L 520 367 L 518 371 L 518 375 L 517 376 L 517 380 L 516 381 L 516 396 L 515 397 L 515 400 L 510 405 L 508 405 L 505 408 L 505 410 L 504 411 L 505 415 L 512 421 L 526 421 L 530 419 L 533 419 L 544 415 L 547 415 L 552 412 L 555 412 L 566 407 L 574 405 L 577 403 L 581 402 L 583 400 L 588 399 L 590 397 L 597 394 L 611 384 L 612 382 L 617 378 L 623 370 L 623 368 L 625 364 L 625 361 L 626 360 L 626 352 L 625 351 L 625 348 L 623 345 L 623 343 L 616 336 L 606 333 L 605 332 L 605 329 L 618 319 L 618 318 L 623 313 L 624 310 L 627 306 L 628 301 L 630 298 L 630 286 L 629 285 L 629 283 L 627 281 Z M 592 357 L 592 362 L 591 364 L 578 374 L 559 383 L 557 383 L 550 386 L 547 386 L 546 385 L 546 383 L 547 382 L 547 377 L 549 373 L 549 369 L 555 357 L 563 354 L 575 354 L 576 353 L 584 354 L 585 355 L 589 355 Z M 592 296 L 593 297 L 593 300 L 589 306 L 574 320 L 568 323 L 566 325 L 564 325 L 563 324 L 563 322 L 564 321 L 565 311 L 567 307 L 568 298 L 573 295 L 589 295 L 590 296 Z M 713 236 L 702 237 L 698 240 L 695 241 L 691 244 L 691 245 L 682 254 L 682 255 L 678 258 L 678 263 L 676 267 L 667 280 L 666 283 L 664 285 L 664 287 L 662 289 L 662 291 L 656 300 L 656 302 L 648 317 L 646 324 L 642 331 L 640 339 L 634 352 L 634 355 L 633 356 L 632 361 L 630 364 L 630 367 L 629 368 L 629 371 L 627 376 L 626 387 L 625 388 L 625 395 L 627 399 L 632 403 L 639 403 L 644 398 L 646 394 L 652 387 L 653 383 L 660 371 L 663 370 L 665 368 L 667 368 L 678 363 L 681 363 L 686 361 L 692 361 L 693 362 L 693 376 L 694 377 L 694 383 L 695 384 L 695 391 L 696 392 L 696 396 L 697 397 L 698 402 L 702 406 L 706 408 L 709 408 L 712 406 L 716 405 L 719 399 L 719 390 L 720 389 L 720 384 L 722 379 L 722 372 L 723 371 L 723 366 L 722 365 L 723 353 L 725 351 L 727 351 L 731 349 L 734 349 L 737 347 L 740 347 L 742 344 L 742 340 L 741 339 L 741 335 L 738 329 L 735 329 L 734 328 L 724 328 L 722 326 L 722 317 L 721 316 L 721 276 L 720 275 L 720 272 L 718 271 L 718 267 L 716 264 L 716 252 L 715 251 L 714 237 Z M 690 310 L 691 311 L 692 331 L 689 334 L 685 336 L 675 337 L 674 336 L 674 334 L 677 328 L 681 323 L 681 321 L 683 319 L 684 316 L 687 313 L 687 311 L 688 310 Z M 882 228 L 874 225 L 859 225 L 858 226 L 850 226 L 849 227 L 845 227 L 844 228 L 834 228 L 830 230 L 821 230 L 820 231 L 816 231 L 815 232 L 811 232 L 810 233 L 804 233 L 799 235 L 793 235 L 789 237 L 785 237 L 782 239 L 772 240 L 771 241 L 764 242 L 757 245 L 753 245 L 750 248 L 748 248 L 743 251 L 736 252 L 736 253 L 728 260 L 725 268 L 725 274 L 726 275 L 728 285 L 730 287 L 735 287 L 745 283 L 748 283 L 752 281 L 755 281 L 756 280 L 759 280 L 764 278 L 768 278 L 769 277 L 774 277 L 776 279 L 776 282 L 775 283 L 775 286 L 774 287 L 774 290 L 772 295 L 771 305 L 769 310 L 768 324 L 767 325 L 766 338 L 765 339 L 765 344 L 764 345 L 764 356 L 763 357 L 763 372 L 768 381 L 772 383 L 784 383 L 788 380 L 788 378 L 791 374 L 791 370 L 793 367 L 794 360 L 795 359 L 795 353 L 797 351 L 797 341 L 800 334 L 801 322 L 802 321 L 804 311 L 805 310 L 806 300 L 807 299 L 807 294 L 809 290 L 810 282 L 811 281 L 811 277 L 812 276 L 812 272 L 814 268 L 818 265 L 820 265 L 823 263 L 825 263 L 832 260 L 836 260 L 837 259 L 841 259 L 845 257 L 850 257 L 855 255 L 859 255 L 860 254 L 870 252 L 876 249 L 879 249 L 881 247 L 883 247 L 885 244 L 885 234 Z" fill="#16C5F1" fill-rule="evenodd"/></g>
<g id="unit"><path d="M 645 726 L 643 726 L 639 724 L 629 724 L 628 725 L 615 725 L 614 726 L 605 726 L 604 727 L 597 727 L 596 728 L 576 730 L 575 731 L 570 731 L 569 732 L 552 734 L 551 735 L 547 735 L 546 736 L 541 736 L 540 737 L 526 739 L 521 741 L 516 741 L 515 742 L 512 742 L 511 743 L 508 743 L 507 744 L 504 744 L 503 745 L 488 748 L 484 750 L 477 751 L 473 753 L 469 753 L 468 754 L 442 762 L 437 765 L 435 765 L 430 768 L 428 768 L 422 771 L 420 773 L 413 776 L 404 783 L 402 788 L 402 795 L 404 797 L 410 797 L 413 795 L 415 795 L 418 793 L 425 791 L 430 788 L 436 787 L 439 785 L 450 782 L 453 780 L 455 780 L 459 778 L 462 778 L 468 775 L 470 775 L 474 773 L 477 773 L 484 770 L 487 770 L 494 767 L 497 767 L 508 763 L 515 762 L 519 760 L 522 760 L 523 759 L 526 759 L 527 758 L 530 758 L 535 756 L 539 756 L 543 754 L 551 753 L 552 752 L 555 752 L 560 750 L 564 750 L 565 749 L 568 749 L 573 747 L 577 747 L 578 746 L 592 744 L 593 743 L 596 743 L 601 741 L 605 741 L 609 739 L 614 739 L 618 737 L 633 736 L 640 733 L 643 729 L 645 728 Z M 467 619 L 463 619 L 462 620 L 457 620 L 456 621 L 452 621 L 451 622 L 446 622 L 445 623 L 439 623 L 438 624 L 436 624 L 436 631 L 435 632 L 435 649 L 434 650 L 433 667 L 432 668 L 432 673 L 431 674 L 431 678 L 429 683 L 429 687 L 428 688 L 428 692 L 427 693 L 426 700 L 425 701 L 422 712 L 419 716 L 413 721 L 408 723 L 401 723 L 399 722 L 395 718 L 392 711 L 392 694 L 393 693 L 393 685 L 394 684 L 394 679 L 395 678 L 395 674 L 396 673 L 396 669 L 397 668 L 399 651 L 400 650 L 400 647 L 402 642 L 403 633 L 402 631 L 391 631 L 390 632 L 386 632 L 385 633 L 380 633 L 377 635 L 375 639 L 374 647 L 373 648 L 372 656 L 371 657 L 371 662 L 370 663 L 370 667 L 369 668 L 369 672 L 368 673 L 368 680 L 367 681 L 367 688 L 366 689 L 366 697 L 365 698 L 365 719 L 366 720 L 366 725 L 367 726 L 368 731 L 372 737 L 376 741 L 384 745 L 391 746 L 392 747 L 401 747 L 402 746 L 412 745 L 422 741 L 431 735 L 431 734 L 434 732 L 443 722 L 452 707 L 452 705 L 454 702 L 454 700 L 457 693 L 458 683 L 459 682 L 459 676 L 460 675 L 461 664 L 462 663 L 462 658 L 463 657 L 463 650 L 464 649 L 465 635 L 466 634 L 466 630 L 467 629 Z M 572 601 L 564 601 L 563 602 L 551 603 L 550 604 L 546 604 L 544 606 L 544 613 L 543 614 L 543 621 L 542 622 L 542 630 L 541 631 L 541 640 L 540 641 L 540 649 L 539 650 L 539 659 L 537 663 L 535 663 L 530 656 L 524 644 L 524 642 L 521 637 L 521 635 L 518 630 L 518 628 L 514 622 L 514 620 L 510 613 L 502 613 L 501 614 L 495 614 L 494 615 L 483 616 L 482 618 L 482 622 L 481 623 L 481 627 L 480 628 L 479 640 L 478 641 L 477 655 L 476 656 L 476 662 L 475 663 L 475 670 L 474 671 L 474 677 L 473 678 L 471 698 L 470 699 L 469 711 L 468 712 L 468 717 L 467 718 L 467 727 L 474 727 L 475 726 L 492 724 L 494 722 L 494 718 L 495 717 L 495 708 L 496 707 L 496 699 L 497 698 L 497 690 L 499 685 L 499 676 L 500 675 L 500 667 L 501 666 L 503 666 L 504 667 L 505 671 L 513 687 L 515 689 L 515 691 L 523 706 L 523 708 L 528 716 L 540 715 L 541 714 L 552 713 L 553 712 L 558 712 L 559 711 L 561 686 L 562 685 L 564 665 L 565 664 L 566 652 L 567 651 L 567 643 L 568 642 L 568 637 L 569 636 L 570 620 L 571 619 L 571 614 L 572 613 L 572 605 L 573 604 L 573 602 Z M 614 595 L 605 595 L 604 596 L 594 597 L 593 598 L 588 598 L 587 599 L 587 603 L 586 604 L 585 631 L 584 632 L 584 643 L 583 644 L 583 655 L 582 656 L 582 667 L 581 668 L 581 676 L 580 677 L 580 684 L 579 685 L 578 699 L 577 700 L 577 708 L 578 709 L 588 708 L 589 707 L 593 707 L 594 706 L 598 706 L 599 705 L 603 705 L 605 704 L 605 701 L 606 700 L 606 693 L 607 692 L 607 684 L 608 683 L 608 675 L 609 674 L 610 656 L 611 655 L 611 644 L 612 643 L 613 616 L 614 615 L 614 602 L 615 601 L 615 597 Z M 716 582 L 701 582 L 700 583 L 689 583 L 688 584 L 681 584 L 680 585 L 671 585 L 670 586 L 665 586 L 664 587 L 657 587 L 656 588 L 651 588 L 650 589 L 637 590 L 636 591 L 632 591 L 627 593 L 627 595 L 626 596 L 626 604 L 625 605 L 625 609 L 624 610 L 624 617 L 625 618 L 628 618 L 629 617 L 634 617 L 635 616 L 639 616 L 640 615 L 649 615 L 650 616 L 650 618 L 649 619 L 649 628 L 648 629 L 648 638 L 647 639 L 646 660 L 645 661 L 645 668 L 644 669 L 643 691 L 642 692 L 642 696 L 643 697 L 650 697 L 651 696 L 655 696 L 656 695 L 661 695 L 662 694 L 669 693 L 670 678 L 671 677 L 671 668 L 672 667 L 672 660 L 673 659 L 673 651 L 674 650 L 674 644 L 675 643 L 675 634 L 676 633 L 676 628 L 677 627 L 677 615 L 678 614 L 678 611 L 680 609 L 685 609 L 686 608 L 696 608 L 697 607 L 707 607 L 708 606 L 713 606 L 714 605 L 714 600 L 716 597 L 716 594 L 715 593 L 715 590 L 716 589 Z" fill="#FF3FA3" fill-rule="evenodd"/></g>
<g id="soon"><path d="M 468 802 L 463 802 L 462 801 L 453 802 L 447 805 L 445 808 L 443 813 L 443 819 L 445 824 L 451 828 L 458 830 L 462 834 L 462 836 L 457 840 L 453 840 L 449 837 L 445 836 L 441 840 L 441 844 L 443 846 L 448 848 L 456 849 L 457 848 L 462 848 L 463 847 L 465 847 L 470 842 L 471 837 L 472 836 L 472 830 L 470 825 L 464 821 L 461 821 L 457 819 L 454 816 L 454 813 L 458 810 L 461 810 L 463 812 L 469 812 L 472 808 L 472 805 Z M 490 799 L 484 802 L 480 808 L 479 814 L 478 815 L 478 821 L 477 822 L 477 833 L 478 834 L 479 841 L 481 844 L 487 847 L 498 847 L 504 844 L 508 839 L 508 837 L 510 833 L 510 829 L 511 828 L 511 811 L 510 810 L 510 807 L 506 801 L 502 799 Z M 496 809 L 500 813 L 500 815 L 501 816 L 500 829 L 499 830 L 499 832 L 494 837 L 492 837 L 488 833 L 488 831 L 487 830 L 487 824 L 488 823 L 488 819 L 489 818 L 489 814 L 490 812 L 493 809 Z M 529 797 L 525 799 L 520 804 L 520 806 L 518 809 L 518 812 L 517 813 L 517 831 L 520 839 L 523 842 L 527 844 L 537 844 L 542 842 L 546 838 L 548 834 L 549 828 L 550 827 L 550 810 L 549 809 L 548 803 L 543 798 L 541 797 Z M 533 806 L 535 806 L 540 812 L 540 822 L 539 823 L 539 829 L 538 831 L 534 834 L 531 834 L 527 830 L 527 828 L 526 827 L 526 821 L 527 820 L 527 814 L 528 813 L 528 811 L 529 809 Z M 590 794 L 581 794 L 580 795 L 580 813 L 579 814 L 577 814 L 567 795 L 561 795 L 560 796 L 558 796 L 558 804 L 557 805 L 557 834 L 556 835 L 556 842 L 564 842 L 566 841 L 566 827 L 568 824 L 570 824 L 572 826 L 579 840 L 588 840 L 589 839 Z" fill="#FF3FA3" fill-rule="evenodd"/></g>
</svg>