<svg xmlns="http://www.w3.org/2000/svg" viewBox="0 0 1024 1024">
<path d="M 468 802 L 463 802 L 462 801 L 453 802 L 447 805 L 445 808 L 443 813 L 443 819 L 445 824 L 451 828 L 458 830 L 462 834 L 462 836 L 457 840 L 453 840 L 449 837 L 445 836 L 441 840 L 441 844 L 443 846 L 448 848 L 456 849 L 457 848 L 462 848 L 463 847 L 465 847 L 470 842 L 471 837 L 472 836 L 472 830 L 470 825 L 464 821 L 461 821 L 457 819 L 454 816 L 454 813 L 458 810 L 461 810 L 463 812 L 469 812 L 472 808 L 472 805 Z M 490 799 L 484 802 L 480 808 L 479 814 L 478 815 L 478 821 L 477 822 L 477 833 L 478 834 L 479 841 L 481 844 L 487 847 L 498 847 L 504 844 L 508 839 L 508 837 L 510 833 L 510 829 L 511 828 L 511 811 L 510 810 L 510 807 L 506 801 L 502 799 Z M 496 809 L 500 813 L 500 815 L 501 816 L 500 829 L 499 830 L 499 832 L 494 837 L 492 837 L 488 833 L 488 831 L 487 830 L 487 824 L 488 823 L 488 819 L 489 818 L 489 814 L 490 812 L 493 809 Z M 529 797 L 525 799 L 520 804 L 520 806 L 518 809 L 518 812 L 517 813 L 517 831 L 520 839 L 523 842 L 527 844 L 537 844 L 542 842 L 546 838 L 548 834 L 549 828 L 550 827 L 550 810 L 549 809 L 548 803 L 543 798 L 541 797 Z M 533 806 L 535 806 L 540 812 L 540 822 L 539 823 L 539 829 L 538 831 L 534 834 L 531 834 L 527 830 L 527 828 L 526 827 L 526 821 L 527 820 L 527 814 L 528 813 L 528 811 L 529 809 Z M 590 794 L 581 794 L 580 795 L 580 813 L 579 814 L 577 814 L 567 795 L 561 795 L 560 796 L 558 796 L 558 804 L 557 805 L 557 834 L 556 835 L 556 842 L 564 842 L 566 841 L 566 827 L 568 824 L 570 824 L 572 826 L 579 840 L 588 840 L 589 839 Z" fill="#FF3FA3" fill-rule="evenodd"/>
</svg>