<svg xmlns="http://www.w3.org/2000/svg" viewBox="0 0 1024 1024">
<path d="M 645 726 L 643 726 L 639 724 L 629 724 L 628 725 L 615 725 L 614 726 L 605 726 L 604 727 L 597 727 L 596 728 L 576 730 L 575 731 L 570 731 L 569 732 L 552 734 L 551 735 L 547 735 L 546 736 L 541 736 L 540 737 L 526 739 L 521 741 L 516 741 L 515 742 L 512 742 L 511 743 L 508 743 L 507 744 L 504 744 L 503 745 L 488 748 L 484 750 L 477 751 L 473 753 L 469 753 L 468 754 L 442 762 L 437 765 L 435 765 L 430 768 L 428 768 L 422 771 L 420 773 L 413 776 L 404 783 L 402 788 L 402 795 L 404 797 L 410 797 L 413 795 L 415 795 L 418 793 L 425 791 L 430 788 L 436 787 L 439 785 L 450 782 L 453 780 L 455 780 L 459 778 L 462 778 L 468 775 L 470 775 L 474 773 L 477 773 L 484 770 L 487 770 L 494 767 L 497 767 L 508 763 L 515 762 L 519 760 L 522 760 L 523 759 L 526 759 L 527 758 L 530 758 L 535 756 L 539 756 L 543 754 L 551 753 L 552 752 L 555 752 L 560 750 L 564 750 L 565 749 L 568 749 L 573 747 L 577 747 L 578 746 L 592 744 L 593 743 L 596 743 L 601 741 L 605 741 L 609 739 L 614 739 L 618 737 L 633 736 L 640 733 L 643 729 L 645 728 Z M 467 619 L 463 619 L 462 620 L 457 620 L 456 621 L 452 621 L 451 622 L 446 622 L 445 623 L 439 623 L 438 624 L 436 624 L 436 631 L 435 632 L 435 649 L 434 650 L 433 667 L 432 668 L 432 673 L 431 674 L 431 678 L 429 683 L 429 687 L 428 688 L 428 692 L 427 693 L 426 700 L 425 701 L 422 712 L 419 716 L 413 721 L 408 723 L 401 723 L 399 722 L 395 718 L 392 711 L 392 694 L 393 693 L 393 685 L 394 684 L 394 679 L 395 678 L 395 674 L 396 673 L 396 669 L 397 668 L 399 651 L 400 650 L 400 647 L 402 642 L 403 633 L 402 631 L 391 631 L 390 632 L 386 632 L 385 633 L 380 633 L 377 635 L 375 639 L 374 647 L 373 648 L 372 656 L 371 657 L 371 662 L 370 663 L 370 667 L 369 668 L 369 672 L 368 673 L 368 680 L 367 681 L 367 688 L 366 689 L 366 697 L 365 698 L 365 719 L 366 720 L 366 725 L 367 726 L 368 731 L 372 737 L 376 741 L 384 745 L 391 746 L 392 747 L 401 747 L 402 746 L 412 745 L 422 741 L 431 735 L 431 734 L 434 732 L 443 722 L 452 707 L 452 705 L 454 702 L 454 700 L 457 693 L 458 683 L 459 682 L 459 676 L 460 675 L 461 664 L 462 663 L 462 658 L 463 657 L 463 650 L 464 649 L 465 635 L 466 634 L 466 630 L 467 629 Z M 572 601 L 564 601 L 563 602 L 551 603 L 550 604 L 546 604 L 544 606 L 544 613 L 543 614 L 543 621 L 542 622 L 542 630 L 541 631 L 541 640 L 540 641 L 540 649 L 539 650 L 539 659 L 537 663 L 535 663 L 530 656 L 524 644 L 524 642 L 521 637 L 521 635 L 518 630 L 518 628 L 514 622 L 514 620 L 510 613 L 502 613 L 501 614 L 495 614 L 494 615 L 483 616 L 482 618 L 482 622 L 481 623 L 481 627 L 480 628 L 479 640 L 478 641 L 477 655 L 476 656 L 476 662 L 475 663 L 475 670 L 474 671 L 474 677 L 473 678 L 471 698 L 470 699 L 469 711 L 468 712 L 468 717 L 467 718 L 467 727 L 474 727 L 475 726 L 492 724 L 494 722 L 494 718 L 495 717 L 495 708 L 496 707 L 496 699 L 497 698 L 497 690 L 499 685 L 499 676 L 500 675 L 500 667 L 501 666 L 503 666 L 504 667 L 505 671 L 513 687 L 515 689 L 515 691 L 523 706 L 523 708 L 528 716 L 540 715 L 541 714 L 552 713 L 553 712 L 558 712 L 559 711 L 561 686 L 562 685 L 564 665 L 565 664 L 566 652 L 567 651 L 567 643 L 568 642 L 568 637 L 569 636 L 570 620 L 571 619 L 571 614 L 572 613 L 572 605 L 573 604 L 573 602 Z M 614 595 L 605 595 L 604 596 L 594 597 L 593 598 L 588 598 L 587 599 L 587 603 L 586 604 L 585 631 L 584 632 L 584 643 L 583 644 L 583 655 L 582 656 L 582 667 L 581 668 L 581 676 L 580 677 L 580 684 L 579 685 L 578 699 L 577 700 L 577 708 L 578 709 L 588 708 L 589 707 L 593 707 L 594 706 L 598 706 L 599 705 L 603 705 L 605 704 L 605 701 L 606 700 L 606 693 L 607 692 L 607 684 L 608 683 L 608 675 L 609 674 L 610 656 L 611 655 L 611 644 L 612 643 L 613 616 L 614 615 L 614 602 L 615 601 L 615 597 Z M 716 582 L 701 582 L 700 583 L 689 583 L 688 584 L 681 584 L 680 585 L 671 585 L 670 586 L 665 586 L 664 587 L 657 587 L 656 588 L 651 588 L 650 589 L 637 590 L 636 591 L 632 591 L 627 593 L 627 595 L 626 596 L 626 604 L 625 605 L 625 609 L 624 610 L 624 617 L 625 618 L 628 618 L 629 617 L 634 617 L 635 616 L 639 616 L 640 615 L 649 615 L 650 616 L 650 618 L 649 619 L 649 628 L 648 629 L 648 638 L 647 639 L 646 660 L 645 661 L 645 668 L 644 669 L 643 691 L 642 692 L 642 696 L 643 697 L 650 697 L 651 696 L 655 696 L 656 695 L 661 695 L 662 694 L 669 693 L 670 678 L 671 677 L 671 668 L 672 667 L 672 660 L 673 659 L 673 651 L 674 650 L 674 644 L 675 643 L 675 634 L 676 633 L 676 628 L 677 627 L 677 615 L 678 614 L 678 611 L 680 609 L 685 609 L 686 608 L 696 608 L 697 607 L 707 607 L 708 606 L 713 606 L 714 605 L 714 600 L 716 597 L 716 594 L 715 593 L 715 590 L 716 589 Z" fill="#FF3FA3" fill-rule="evenodd"/>
</svg>